<mxfile host="app.diagrams.net" modified="2022-05-02T08:46:50.210Z" agent="5.0 (Windows NT 10.0; Win64; x64) AppleWebKit/537.36 (KHTML, like Gecko) Chrome/98.0.4758.141 YaBrowser/22.3.3.852 Yowser/2.5 Safari/537.36" etag="kVfZyqdE_axgGWDcpYWv" version="17.4.6" type="github">
  <diagram id="1LPc90FmCF_bVpMjvbOZ" name="Page-1">
    <mxGraphModel dx="782" dy="464" grid="1" gridSize="10" guides="1" tooltips="1" connect="1" arrows="1" fold="1" page="1" pageScale="1" pageWidth="827" pageHeight="1169" math="0" shadow="0">
      <root>
        <mxCell id="0" />
        <mxCell id="1" parent="0" />
        <mxCell id="TyJq4tMr1zB4piBt4_IY-4" value="&lt;font&gt;&lt;font style=&quot;font-size: 16px&quot;&gt;&lt;i&gt;Начало&lt;/i&gt;&lt;/font&gt;&lt;br&gt;&lt;/font&gt;" style="strokeWidth=2;html=1;shape=mxgraph.flowchart.terminator;whiteSpace=wrap;fontFamily=Verdana;" vertex="1" parent="1">
          <mxGeometry x="272.5" y="110" width="140" height="50" as="geometry" />
        </mxCell>
        <mxCell id="TyJq4tMr1zB4piBt4_IY-5" value="Ввод имени пользователя и пароля" style="rounded=0;whiteSpace=wrap;html=1;fontFamily=Verdana;fontSize=16;fontStyle=2" vertex="1" parent="1">
          <mxGeometry x="237.5" y="200" width="210" height="60" as="geometry" />
        </mxCell>
        <mxCell id="TyJq4tMr1zB4piBt4_IY-6" value="Введенные данные корректны" style="strokeWidth=2;html=1;shape=mxgraph.flowchart.decision;whiteSpace=wrap;fontFamily=Verdana;fontSize=16;fontStyle=2" vertex="1" parent="1">
          <mxGeometry x="265" y="290" width="155" height="130" as="geometry" />
        </mxCell>
        <mxCell id="TyJq4tMr1zB4piBt4_IY-8" value="Запрос к БД на соответствие имени пользователя и пароля" style="rounded=0;whiteSpace=wrap;html=1;fontFamily=Verdana;fontSize=16;fontStyle=2" vertex="1" parent="1">
          <mxGeometry x="237.5" y="450" width="210" height="60" as="geometry" />
        </mxCell>
        <mxCell id="TyJq4tMr1zB4piBt4_IY-9" value="Пользователь существует" style="strokeWidth=2;html=1;shape=mxgraph.flowchart.decision;whiteSpace=wrap;fontFamily=Verdana;fontSize=16;fontStyle=2" vertex="1" parent="1">
          <mxGeometry x="265" y="550" width="155" height="130" as="geometry" />
        </mxCell>
        <mxCell id="TyJq4tMr1zB4piBt4_IY-10" value="Авторизация пользователя" style="rounded=0;whiteSpace=wrap;html=1;fontFamily=Verdana;fontSize=16;fontStyle=2" vertex="1" parent="1">
          <mxGeometry x="237.5" y="720" width="210" height="60" as="geometry" />
        </mxCell>
        <mxCell id="TyJq4tMr1zB4piBt4_IY-11" value="&lt;font&gt;&lt;font style=&quot;font-size: 16px&quot;&gt;&lt;i&gt;Конец&lt;/i&gt;&lt;/font&gt;&lt;br&gt;&lt;/font&gt;" style="strokeWidth=2;html=1;shape=mxgraph.flowchart.terminator;whiteSpace=wrap;fontFamily=Verdana;" vertex="1" parent="1">
          <mxGeometry x="272.5" y="830" width="140" height="50" as="geometry" />
        </mxCell>
        <mxCell id="TyJq4tMr1zB4piBt4_IY-12" value="Вывод сообщения об ошибке" style="rounded=0;whiteSpace=wrap;html=1;fontFamily=Verdana;fontSize=16;fontStyle=2" vertex="1" parent="1">
          <mxGeometry x="520" y="325" width="210" height="60" as="geometry" />
        </mxCell>
        <mxCell id="TyJq4tMr1zB4piBt4_IY-13" value="Вывод сообщения об ошибке" style="rounded=0;whiteSpace=wrap;html=1;fontFamily=Verdana;fontSize=16;fontStyle=2" vertex="1" parent="1">
          <mxGeometry x="520" y="585" width="210" height="60" as="geometry" />
        </mxCell>
        <mxCell id="TyJq4tMr1zB4piBt4_IY-14" value="" style="endArrow=none;html=1;rounded=0;fontFamily=Verdana;fontSize=16;entryX=0.5;entryY=1;entryDx=0;entryDy=0;entryPerimeter=0;exitX=0.5;exitY=0;exitDx=0;exitDy=0;" edge="1" parent="1" source="TyJq4tMr1zB4piBt4_IY-5" target="TyJq4tMr1zB4piBt4_IY-4">
          <mxGeometry width="50" height="50" relative="1" as="geometry">
            <mxPoint x="420" y="320" as="sourcePoint" />
            <mxPoint x="470" y="270" as="targetPoint" />
          </mxGeometry>
        </mxCell>
        <mxCell id="TyJq4tMr1zB4piBt4_IY-15" value="" style="endArrow=none;html=1;rounded=0;fontFamily=Verdana;fontSize=16;entryX=0.5;entryY=0;entryDx=0;entryDy=0;entryPerimeter=0;exitX=0.5;exitY=1;exitDx=0;exitDy=0;" edge="1" parent="1" source="TyJq4tMr1zB4piBt4_IY-5" target="TyJq4tMr1zB4piBt4_IY-6">
          <mxGeometry width="50" height="50" relative="1" as="geometry">
            <mxPoint x="420" y="370" as="sourcePoint" />
            <mxPoint x="470" y="320" as="targetPoint" />
          </mxGeometry>
        </mxCell>
        <mxCell id="TyJq4tMr1zB4piBt4_IY-16" value="" style="endArrow=none;html=1;rounded=0;fontFamily=Verdana;fontSize=16;entryX=0.5;entryY=1;entryDx=0;entryDy=0;entryPerimeter=0;exitX=0.5;exitY=0;exitDx=0;exitDy=0;" edge="1" parent="1" source="TyJq4tMr1zB4piBt4_IY-8" target="TyJq4tMr1zB4piBt4_IY-6">
          <mxGeometry width="50" height="50" relative="1" as="geometry">
            <mxPoint x="420" y="520" as="sourcePoint" />
            <mxPoint x="470" y="470" as="targetPoint" />
          </mxGeometry>
        </mxCell>
        <mxCell id="TyJq4tMr1zB4piBt4_IY-17" value="" style="endArrow=none;html=1;rounded=0;fontFamily=Verdana;fontSize=16;entryX=0.5;entryY=1;entryDx=0;entryDy=0;exitX=0.5;exitY=0;exitDx=0;exitDy=0;exitPerimeter=0;" edge="1" parent="1" source="TyJq4tMr1zB4piBt4_IY-9" target="TyJq4tMr1zB4piBt4_IY-8">
          <mxGeometry width="50" height="50" relative="1" as="geometry">
            <mxPoint x="420" y="550" as="sourcePoint" />
            <mxPoint x="470" y="500" as="targetPoint" />
          </mxGeometry>
        </mxCell>
        <mxCell id="TyJq4tMr1zB4piBt4_IY-18" value="" style="endArrow=none;html=1;rounded=0;fontFamily=Verdana;fontSize=16;entryX=0.5;entryY=1;entryDx=0;entryDy=0;entryPerimeter=0;exitX=0.5;exitY=0;exitDx=0;exitDy=0;" edge="1" parent="1" source="TyJq4tMr1zB4piBt4_IY-10" target="TyJq4tMr1zB4piBt4_IY-9">
          <mxGeometry width="50" height="50" relative="1" as="geometry">
            <mxPoint x="420" y="670" as="sourcePoint" />
            <mxPoint x="470" y="620" as="targetPoint" />
          </mxGeometry>
        </mxCell>
        <mxCell id="TyJq4tMr1zB4piBt4_IY-19" value="" style="endArrow=none;html=1;rounded=0;fontFamily=Verdana;fontSize=16;entryX=0.5;entryY=1;entryDx=0;entryDy=0;exitX=0.5;exitY=0;exitDx=0;exitDy=0;exitPerimeter=0;" edge="1" parent="1" source="TyJq4tMr1zB4piBt4_IY-11" target="TyJq4tMr1zB4piBt4_IY-10">
          <mxGeometry width="50" height="50" relative="1" as="geometry">
            <mxPoint x="420" y="790" as="sourcePoint" />
            <mxPoint x="470" y="740" as="targetPoint" />
          </mxGeometry>
        </mxCell>
        <mxCell id="TyJq4tMr1zB4piBt4_IY-20" value="" style="endArrow=none;html=1;rounded=0;fontFamily=Verdana;fontSize=16;entryX=1;entryY=0.5;entryDx=0;entryDy=0;entryPerimeter=0;exitX=0;exitY=0.5;exitDx=0;exitDy=0;" edge="1" parent="1" source="TyJq4tMr1zB4piBt4_IY-12" target="TyJq4tMr1zB4piBt4_IY-6">
          <mxGeometry width="50" height="50" relative="1" as="geometry">
            <mxPoint x="420" y="460" as="sourcePoint" />
            <mxPoint x="470" y="410" as="targetPoint" />
          </mxGeometry>
        </mxCell>
        <mxCell id="TyJq4tMr1zB4piBt4_IY-21" value="" style="endArrow=none;html=1;rounded=0;fontFamily=Verdana;fontSize=16;exitX=1;exitY=0.5;exitDx=0;exitDy=0;exitPerimeter=0;entryX=0;entryY=0.5;entryDx=0;entryDy=0;" edge="1" parent="1" source="TyJq4tMr1zB4piBt4_IY-9" target="TyJq4tMr1zB4piBt4_IY-13">
          <mxGeometry width="50" height="50" relative="1" as="geometry">
            <mxPoint x="420" y="540" as="sourcePoint" />
            <mxPoint x="470" y="490" as="targetPoint" />
          </mxGeometry>
        </mxCell>
        <mxCell id="TyJq4tMr1zB4piBt4_IY-22" value="" style="endArrow=none;html=1;rounded=0;fontFamily=Verdana;fontSize=16;exitX=1;exitY=0.5;exitDx=0;exitDy=0;edgeStyle=orthogonalEdgeStyle;" edge="1" parent="1" source="TyJq4tMr1zB4piBt4_IY-13">
          <mxGeometry width="50" height="50" relative="1" as="geometry">
            <mxPoint x="500" y="450" as="sourcePoint" />
            <mxPoint x="760" y="180" as="targetPoint" />
          </mxGeometry>
        </mxCell>
        <mxCell id="TyJq4tMr1zB4piBt4_IY-23" value="" style="endArrow=none;html=1;rounded=0;fontFamily=Verdana;fontSize=16;entryX=1;entryY=0.5;entryDx=0;entryDy=0;" edge="1" parent="1" target="TyJq4tMr1zB4piBt4_IY-12">
          <mxGeometry width="50" height="50" relative="1" as="geometry">
            <mxPoint x="760" y="355" as="sourcePoint" />
            <mxPoint x="550" y="280" as="targetPoint" />
          </mxGeometry>
        </mxCell>
        <mxCell id="TyJq4tMr1zB4piBt4_IY-25" value="" style="endArrow=classic;html=1;rounded=0;fontFamily=Verdana;fontSize=16;" edge="1" parent="1">
          <mxGeometry width="50" height="50" relative="1" as="geometry">
            <mxPoint x="760" y="180" as="sourcePoint" />
            <mxPoint x="340" y="180" as="targetPoint" />
          </mxGeometry>
        </mxCell>
        <mxCell id="TyJq4tMr1zB4piBt4_IY-26" value="&lt;i&gt;Да&lt;/i&gt;&lt;span style=&quot;color: rgba(0 , 0 , 0 , 0) ; font-family: monospace ; font-size: 0px&quot;&gt;%3CmxGraphModel%3E%3Croot%3E%3CmxCell%20id%3D%220%22%2F%3E%3CmxCell%20id%3D%221%22%20parent%3D%220%22%2F%3E%3CmxCell%20id%3D%222%22%20value%3D%22%D0%92%D1%8B%D0%B2%D0%BE%D0%B4%20%D1%81%D0%BE%D0%BE%D0%B1%D1%89%D0%B5%D0%BD%D0%B8%D1%8F%20%D0%BE%D0%B1%20%D0%BE%D1%88%D0%B8%D0%B1%D0%BA%D0%B5%22%20style%3D%22rounded%3D0%3BwhiteSpace%3Dwrap%3Bhtml%3D1%3BfontFamily%3DVerdana%3BfontSize%3D16%3BfontStyle%3D2%22%20vertex%3D%221%22%20parent%3D%221%22%3E%3CmxGeometry%20x%3D%22530%22%20y%3D%22325%22%20width%3D%22210%22%20height%3D%2260%22%20as%3D%22geometry%22%2F%3E%3C%2FmxCell%3E%3C%2Froot%3E%3C%2FmxGraphModel%3E&lt;/span&gt;" style="text;html=1;strokeColor=none;fillColor=none;align=center;verticalAlign=middle;whiteSpace=wrap;rounded=0;fontFamily=Verdana;fontSize=16;" vertex="1" parent="1">
          <mxGeometry x="260" y="410" width="60" height="30" as="geometry" />
        </mxCell>
        <mxCell id="TyJq4tMr1zB4piBt4_IY-27" value="&lt;i&gt;Да&lt;/i&gt;&lt;span style=&quot;color: rgba(0 , 0 , 0 , 0) ; font-family: monospace ; font-size: 0px&quot;&gt;%3CmxGraphModel%3E%3Croot%3E%3CmxCell%20id%3D%220%22%2F%3E%3CmxCell%20id%3D%221%22%20parent%3D%220%22%2F%3E%3CmxCell%20id%3D%222%22%20value%3D%22%D0%92%D1%8B%D0%B2%D0%BE%D0%B4%20%D1%81%D0%BE%D0%BE%D0%B1%D1%89%D0%B5%D0%BD%D0%B8%D1%8F%20%D0%BE%D0%B1%20%D0%BE%D1%88%D0%B8%D0%B1%D0%BA%D0%B5%22%20style%3D%22rounded%3D0%3BwhiteSpace%3Dwrap%3Bhtml%3D1%3BfontFamily%3DVerdana%3BfontSize%3D16%3BfontStyle%3D2%22%20vertex%3D%221%22%20parent%3D%221%22%3E%3CmxGeometry%20x%3D%22530%22%20y%3D%22325%22%20width%3D%22210%22%20height%3D%2260%22%20as%3D%22geometry%22%2F%3E%3C%2FmxCell%3E%3C%2Froot%3E%3C%2FmxGraphModel%3E&lt;/span&gt;" style="text;html=1;strokeColor=none;fillColor=none;align=center;verticalAlign=middle;whiteSpace=wrap;rounded=0;fontFamily=Verdana;fontSize=16;" vertex="1" parent="1">
          <mxGeometry x="265" y="680" width="60" height="30" as="geometry" />
        </mxCell>
        <mxCell id="TyJq4tMr1zB4piBt4_IY-28" value="&lt;i&gt;Нет&lt;/i&gt;" style="text;html=1;strokeColor=none;fillColor=none;align=center;verticalAlign=middle;whiteSpace=wrap;rounded=0;fontFamily=Verdana;fontSize=16;" vertex="1" parent="1">
          <mxGeometry x="430" y="570" width="60" height="30" as="geometry" />
        </mxCell>
        <mxCell id="TyJq4tMr1zB4piBt4_IY-29" value="&lt;i&gt;Нет&lt;/i&gt;" style="text;html=1;strokeColor=none;fillColor=none;align=center;verticalAlign=middle;whiteSpace=wrap;rounded=0;fontFamily=Verdana;fontSize=16;" vertex="1" parent="1">
          <mxGeometry x="430" y="310" width="60" height="30" as="geometry" />
        </mxCell>
      </root>
    </mxGraphModel>
  </diagram>
</mxfile>
